<?xml version="1.0" standalone="no"?>
<!DOCTYPE svg PUBLIC "-//W3C//DTD SVG 20010904//EN"
 "http://www.w3.org/TR/2001/REC-SVG-20010904/DTD/svg10.dtd">
<svg version="1.0" xmlns="http://www.w3.org/2000/svg"
 width="512.000000pt" height="512.000000pt" viewBox="0 0 512.000000 512.000000"
 preserveAspectRatio="xMidYMid meet">
<metadata>
Created by potrace 1.14, written by Peter Selinger 2001-2017
</metadata>
<g transform="translate(0.000000,512.000000) scale(0.100000,-0.100000)"
fill="#000000" stroke="none">
<path d="M0 2560 l0 -2560 2560 0 2560 0 0 2560 0 2560 -2560 0 -2560 0 0
-2560z m4480 1295 l0 -425 -1305 0 -1305 0 0 425 0 425 1305 0 1305 0 0 -425z
m-2850 370 c0 -6 -163 -251 -357 -538 l-134 -197 -53 77 c-297 441 -428 637
-433 649 -4 12 70 14 486 14 270 0 491 -2 491 -5z m2848 -1632 l2 -423 -935 0
-935 0 0 418 c0 230 3 422 7 425 3 4 423 6 932 5 l926 -3 3 -422z m-2456 335
c79 -36 142 -98 181 -177 29 -60 32 -74 32 -161 0 -84 -3 -102 -28 -152 -54
-109 -149 -183 -270 -208 -79 -16 -156 -4 -238 37 -78 39 -129 91 -168 173
-23 48 -26 68 -26 155 0 90 3 106 28 155 48 94 130 163 230 196 67 22 190 13
259 -18z m2456 -1665 l2 -423 -935 0 -935 0 0 418 c0 230 3 422 7 425 3 4 423
6 932 5 l926 -3 3 -422z m-2456 335 c257 -118 294 -475 65 -632 -77 -53 -130
-69 -224 -69 -74 -1 -88 2 -157 36 -85 42 -134 92 -175 177 -23 48 -26 67 -26
155 1 81 5 109 22 147 42 90 135 171 236 204 67 22 190 13 259 -18z"/>
</g>
</svg>
