<?xml version="1.0" standalone="no"?>
<!DOCTYPE svg PUBLIC "-//W3C//DTD SVG 20010904//EN"
 "http://www.w3.org/TR/2001/REC-SVG-20010904/DTD/svg10.dtd">
<svg version="1.0" xmlns="http://www.w3.org/2000/svg"
 width="768.000000pt" height="768.000000pt" viewBox="0 0 768.000000 768.000000"
 preserveAspectRatio="xMidYMid meet">
<metadata>
Created by potrace 1.14, written by Peter Selinger 2001-2017
</metadata>
<g transform="translate(0.000000,768.000000) scale(0.100000,-0.100000)"
fill="#000000" stroke="none">
<path d="M3221 6419 l-71 -71 0 -142 c0 -130 2 -145 20 -161 11 -10 20 -22 20
-27 0 -12 56 -68 68 -68 5 0 17 -9 27 -20 16 -18 31 -20 135 -20 104 0 119 2
135 20 10 11 22 20 27 20 12 0 68 56 68 68 0 5 9 17 20 27 18 16 20 31 20 161
l0 142 -71 71 -71 71 -128 0 -128 0 -71 -71z"/>
<path d="M1330 5780 l0 -570 270 0 270 0 0 570 0 570 -270 0 -270 0 0 -570z"/>
<path d="M4864 6133 c-24 -2 -49 -12 -59 -24 -10 -10 -22 -19 -27 -19 -11 0
-68 -55 -68 -66 0 -4 -10 -18 -22 -31 -19 -21 -22 -34 -22 -133 0 -99 3 -112
22 -133 12 -13 22 -27 22 -31 0 -10 56 -66 66 -66 4 0 18 -10 31 -22 21 -19
34 -22 133 -22 99 0 112 3 133 22 13 12 27 22 31 22 10 0 66 56 66 66 0 4 10
18 22 31 19 21 22 34 22 133 0 99 -3 112 -22 133 -12 13 -22 27 -22 31 0 10
-56 66 -66 66 -4 0 -17 9 -28 19 -22 20 -130 33 -212 24z"/>
<path d="M2690 4620 l0 -290 2070 0 2070 0 0 290 0 290 -2070 0 -2070 0 0
-290z"/>
<path d="M370 2400 l0 -750 450 0 450 0 0 750 0 750 -450 0 -450 0 0 -750z"/>
<path d="M2690 2400 l0 -670 1830 0 1830 0 0 670 0 670 -1830 0 -1830 0 0
-670z"/>
</g>
</svg>
